<?xml version="1.0" standalone="no"?><!DOCTYPE svg PUBLIC "-//W3C//DTD SVG 1.1//EN" "http://www.w3.org/Graphics/SVG/1.1/DTD/svg11.dtd"><svg class="icon" width="200px" height="200.00px" viewBox="0 0 1024 1024" version="1.1" xmlns="http://www.w3.org/2000/svg"><path d="M763.982 255.554H260.018c-14.446 0-25.78 12.392-24.494 26.78l17.908 200.35a24.59 24.59 0 0 0 24.494 22.402h5.422l39.034 429.532c2.074 22.83 21.524 40.326 44.83 40.326h289.472c23.306 0 42.754-17.496 44.83-40.326l39.034-429.532h5.53c12.734 0 23.36-9.72 24.494-22.402l17.906-200.35c1.284-14.388-10.05-26.78-24.496-26.78z" fill="#FFF4C1" /><path d="M507.84 886.2c-14.92 0-27.014-12.094-27.014-27.014V76.07c0-14.92 12.094-27.014 27.014-27.014s27.014 12.094 27.014 27.014v783.118c-0.002 14.918-12.096 27.012-27.014 27.012z" fill="#FF9079" /><path d="M509.26 859.186V76.07c0-9.696 5.124-18.172 12.796-22.938a26.848 26.848 0 0 0-14.218-4.076c-14.92 0-27.014 12.094-27.014 27.014v783.118c0 14.92 12.094 27.014 27.014 27.014 5.224 0 10.084-1.508 14.218-4.076-7.67-4.766-12.796-13.244-12.796-22.94z" fill="#FF624B" /><path d="M289.59 467.738h27.864l14.474 159.272h360.038l14.474-159.272h14.308a14.938 14.938 0 0 0 14.88-13.61l13.682-153.094a7.47 7.47 0 0 0-7.44-8.134H282.132a7.47 7.47 0 0 0-7.44 8.134l14.898 166.704z" fill="#A56021" /><path d="M415.752 934.618l-39.034-429.532h-5.422c-12.734 0-23.36-9.72-24.494-22.404l-17.908-200.35c-1.286-14.388 10.048-26.78 24.494-26.78h-93.37c-14.444 0-25.78 12.392-24.494 26.78l17.908 200.35a24.592 24.592 0 0 0 24.494 22.404h5.422l39.034 429.532c2.074 22.83 21.526 40.326 44.83 40.326h93.37c-23.306 0-42.756-17.496-44.83-40.326z" fill="#FFDF74" /><path d="M331.928 627.01l27.648 304.228c0.324 3.566 3.678 6.358 7.636 6.358h289.472c3.958 0 7.31-2.792 7.636-6.358l27.646-304.23H331.928z" fill="#FFEACF" /><path d="M359.576 931.238c0.324 3.566 3.678 6.358 7.636 6.358h48.956c-0.158-0.986-0.324-1.97-0.416-2.978l-27.954-307.61h-55.87l27.648 304.23z" fill="#FFD59A" /><path d="M429.396 385.024l-91.71-15.274c-16.344-2.722-27.386-18.178-24.664-34.522l15.274-91.71c2.722-16.344 18.178-27.386 34.522-24.664l91.71 15.274c16.344 2.722 27.386 18.178 24.664 34.522l-15.274 91.71c-2.724 16.344-18.178 27.386-34.522 24.664z" fill="#FFA730" /><path d="M373.388 352.01l17.456-104.802c2.12-12.728 14.156-21.328 26.884-19.208l-61.456-10.236c-12.728-2.12-24.764 6.48-26.884 19.208l-17.456 104.802c-2.12 12.728 6.48 24.764 19.208 26.884l61.456 10.236c-12.728-2.118-21.328-14.156-19.208-26.884z" fill="#E58D23" /><path d="M605.406 390.992l-77.042-52.044c-13.73-9.274-17.342-27.922-8.066-41.652l52.044-77.042c9.274-13.73 27.922-17.342 41.652-8.066l77.042 52.044c13.73 9.274 17.342 27.922 8.066 41.652l-52.044 77.042c-9.274 13.728-27.922 17.34-41.652 8.066z" fill="#FFA730" /><path d="M568.21 337.67l59.474-88.042c7.222-10.692 21.746-13.504 32.438-6.282l-51.628-34.876c-10.692-7.222-25.216-4.41-32.438 6.282l-59.474 88.042c-7.222 10.692-4.41 25.216 6.282 32.438l51.628 34.876c-10.692-7.222-13.504-21.746-6.282-32.438z" fill="#E58D23" /><path d="M651.092 532.192l-91.164 18.254c-16.246 3.252-32.054-7.28-35.306-23.526l-18.254-91.164c-3.252-16.246 7.28-32.054 23.526-35.306l91.164-18.254c16.246-3.252 32.054 7.28 35.306 23.526l18.254 91.164c3.254 16.246-7.278 32.052-23.526 35.306z" fill="#BF6C0D" /><path d="M587.016 521.194l-20.86-104.178c-2.534-12.652 5.67-24.962 18.322-27.496l-61.09 12.232c-12.652 2.534-20.856 14.844-18.322 27.496l20.86 104.178c2.534 12.652 14.844 20.856 27.496 18.322l61.09-12.232c-12.652 2.534-24.962-5.67-27.496-18.322z" fill="#A56021" /><path d="M704.65 292.902h-181.384l-4.082 6.044c-8.66 12.82-5.288 30.232 7.532 38.89l80.338 54.27c12.82 8.66 30.232 5.288 38.89-7.532l54.27-80.34a27.814 27.814 0 0 0 4.436-11.332z" fill="#BF6C0D" /><path d="M598.452 292.902h-75.186l-6.684 9.894c-7.224 10.692-4.41 25.216 6.282 32.438l51.628 34.874c-10.692-7.222-13.504-21.746-6.282-32.438l30.242-44.768z" fill="#A56021" /><path d="M320.072 292.902l-7.376 44.29c-2.542 15.26 7.768 29.69 23.028 32.232l95.634 15.928c15.26 2.542 29.69-7.768 32.232-23.028l11.562-69.422h-155.08z" fill="#BF6C0D" /><path d="M383.234 292.902h-63.162l-8.14 48.874c-2.12 12.728 6.48 24.764 19.208 26.884l61.456 10.236c-12.728-2.12-21.328-14.156-19.208-26.884l9.846-59.11z" fill="#A56021" /><path d="M567.162 435.802l-82.41 43.04c-14.686 7.67-32.81 1.982-40.48-12.704l-43.04-82.41c-7.67-14.686-1.982-32.81 12.704-40.48l82.41-43.04c14.686-7.67 32.81-1.982 40.48 12.704l43.04 82.41c7.67 14.688 1.982 32.81-12.704 40.48z" fill="#BF6C0D" /><path d="M502.568 443.18l-49.184-94.176c-5.974-11.438-1.544-25.552 9.894-31.526l-55.226 28.842c-11.438 5.974-15.866 20.088-9.894 31.526l49.184 94.176c5.974 11.438 20.088 15.866 31.526 9.894l55.226-28.842c-11.438 5.972-25.552 1.542-31.526-9.894z" fill="#A56021" /><path d="M376.716 505.088l-2.668-38.766-3.186-32.384h-28.418l-12.606-141.036h-47.706a7.47 7.47 0 0 0-7.44 8.134l13.682 153.094a14.94 14.94 0 0 0 14.88 13.61h14.2l14.474 159.27h55.87l-11.082-121.922z" fill="#8C4C17" /><path d="M653.26 612.954a12.004 12.004 0 0 1-11.966-13.086l3.898-42.902c0.602-6.598 6.42-11.44 13.038-10.866 6.6 0.6 11.464 6.438 10.866 13.038l-3.898 42.902a12.004 12.004 0 0 1-11.938 10.914z" fill="#BF6C0D" /><path d="M635.902 898.2a12 12 0 0 1-11.988-12.748l14.804-237.17a11.964 11.964 0 0 1 12.724-11.228 12 12 0 0 1 11.228 12.724l-14.804 237.17a12 12 0 0 1-11.964 11.252z" fill="#FFF4C1" /></svg>